<?xml version="1.0" standalone="no"?>
<!DOCTYPE svg PUBLIC "-//W3C//DTD SVG 20010904//EN"
 "http://www.w3.org/TR/2001/REC-SVG-20010904/DTD/svg10.dtd">
<svg version="1.0" xmlns="http://www.w3.org/2000/svg"
 width="192.000000pt" height="192.000000pt" viewBox="0 0 192.000000 192.000000"
 preserveAspectRatio="xMidYMid meet">
<metadata>
Created by potrace 1.11, written by Peter Selinger 2001-2013
</metadata>
<g transform="translate(0.000000,192.000000) scale(0.100000,-0.100000)"
fill="#000000" stroke="none">
<path d="M0 960 l0 -960 960 0 960 0 0 960 0 960 -960 0 -960 0 0 -960z m1069
453 c-13 -17 -12 -17 6 -2 16 13 24 14 43 4 21 -11 21 -12 4 -28 -16 -14 -33
-16 -111 -10 -85 6 -105 16 -55 28 10 3 35 9 54 14 19 5 43 9 54 10 16 1 17
-1 5 -16z m305 -65 c-8 -26 -32 -47 -53 -48 -9 0 -2 14 19 35 40 41 44 43 34
13z m-351 -47 c17 -6 17 -8 -2 -25 -21 -19 -28 -46 -13 -46 4 0 38 -9 75 -19
l68 -20 34 30 c40 36 54 34 132 -18 74 -49 119 -122 107 -176 -4 -21 -10 -27
-22 -22 -10 4 -44 14 -78 23 l-61 16 -39 -44 c-21 -23 -39 -50 -39 -58 0 -9
21 -22 54 -33 30 -11 56 -21 59 -24 9 -8 -101 -54 -173 -71 -74 -18 -304 -26
-339 -11 -18 7 -17 10 13 41 18 18 29 39 26 47 -3 8 -41 26 -85 40 l-79 26
-49 -43 -50 -43 -46 31 c-65 43 -96 91 -96 150 0 34 6 54 23 73 22 26 22 26
72 10 69 -21 77 -19 123 18 53 42 54 63 2 78 -21 7 -37 16 -34 20 5 9 102 38
164 49 57 10 229 11 253 1z m-730 -120 c17 -6 18 -8 3 -20 -13 -11 -22 -11
-42 -2 -44 20 -8 41 39 22z m1181 -395 c-3 -9 -10 -13 -16 -10 -5 3 -4 12 3
20 15 18 22 13 13 -10z m82 -11 c17 -13 17 -14 2 -15 -10 0 -18 -6 -19 -12 0
-10 -2 -10 -6 0 -2 6 -9 10 -14 6 -5 -3 -9 4 -9 15 0 25 18 27 46 6z m-871
-114 c-3 -6 -11 -11 -17 -11 -6 0 -6 6 2 15 14 17 26 13 15 -4z m162 -2 c95
-8 151 -8 220 1 64 8 98 8 110 1 16 -9 16 -10 -4 -11 -12 0 -23 -4 -25 -10 -6
-20 -124 -32 -268 -27 -80 2 -153 8 -162 12 -19 7 -25 45 -9 45 6 0 67 -5 138
-11z m-32 -65 c14 -6 14 -8 -2 -28 -16 -19 -15 -19 8 2 18 16 32 20 45 15 19
-8 19 -9 2 -25 -10 -10 -20 -17 -23 -17 -3 1 -30 -2 -61 -6 -47 -6 -59 -4 -73
12 -14 16 -17 28 -12 48 2 7 96 6 116 -1z"/>
<path d="M884 1120 c-31 -12 -38 -28 -22 -47 11 -14 11 -16 -2 -8 -13 8 -13 6
-2 -7 30 -37 122 -28 130 12 7 38 -58 69 -104 50z"/>
</g>
</svg>
